<svg version="1.1" id="Layer_1" xmlns="http://www.w3.org/2000/svg" xmlns:xlink="http://www.w3.org/1999/xlink" x="0px" y="0px"
	 width="100%" viewBox="0 0 438 314" enable-background="new 0 0 438 314" xml:space="preserve">
<path fill="#FFFFFF" opacity="1.000000" stroke="none" 
	d="
M1.000000,103.000000 
	C1.000000,68.666672 1.000000,34.833344 1.000000,1.000014 
	C146.999969,1.000009 292.999939,1.000009 438.999939,1.000005 
	C438.999939,105.666618 438.999939,210.333237 438.999969,314.999878 
	C293.000092,314.999939 147.000153,314.999939 1.000116,314.999969 
	C1.000000,244.500000 1.000000,174.000000 1.000000,103.000000 
M435.001221,17.618889 
	C434.999817,7.222775 434.774628,6.997776 424.365448,6.997773 
	C287.065704,6.997734 149.765961,6.997011 12.466222,6.999803 
	C5.357340,6.999948 4.018975,8.339856 4.018723,15.463126 
	C4.015341,110.773140 4.015571,206.083145 4.018180,301.393158 
	C4.018381,308.711395 5.341047,310.000122 12.823094,310.000183 
	C150.622711,310.001617 288.422333,310.001709 426.221954,310.000031 
	C434.041290,309.999939 435.000214,309.016998 435.000336,301.020996 
	C435.001770,206.877365 435.001221,112.733734 435.001221,17.618889 
z"/>
<path fill="#E8E8E8" opacity="1.000000" stroke="none" 
	d="
M435.001221,18.104500 
	C435.001221,112.733734 435.001770,206.877365 435.000336,301.020996 
	C435.000214,309.016998 434.041290,309.999939 426.221954,310.000031 
	C288.422333,310.001709 150.622711,310.001617 12.823094,310.000183 
	C5.341047,310.000122 4.018381,308.711395 4.018180,301.393158 
	C4.015571,206.083145 4.015341,110.773140 4.018723,15.463126 
	C4.018975,8.339856 5.357340,6.999948 12.466222,6.999803 
	C149.765961,6.997011 287.065704,6.997734 424.365448,6.997773 
	C434.774628,6.997776 434.999817,7.222775 435.001221,18.104500 
M432.998779,35.500008 
	C432.998779,29.166681 433.000092,22.833355 432.998444,16.500029 
	C432.996521,9.006697 432.995392,9.002570 425.660645,9.002525 
	C288.660736,9.001690 151.660843,9.001800 14.660952,9.002188 
	C6.992667,9.002210 6.286096,9.695683 6.028398,17.499920 
	C5.995412,18.498848 6.022179,19.499769 6.022178,20.499767 
	C6.022094,112.499695 6.022035,204.499619 6.022722,296.499542 
	C6.022732,297.832825 5.948887,299.172516 6.050990,300.498322 
	C6.585073,307.433319 7.209110,307.998077 14.162711,307.998108 
	C151.162598,307.999023 288.162506,307.999237 425.162384,307.997589 
	C432.633698,307.997498 432.997772,307.623505 432.997894,299.999786 
	C432.999268,212.166519 432.998779,124.333260 432.998779,35.500008 
z"/>
<path fill="#FFFFFF" opacity="1.000000" stroke="none" 
	d="
M432.998779,36.000004 
	C432.998779,124.333260 432.999268,212.166519 432.997894,299.999786 
	C432.997772,307.623505 432.633698,307.997498 425.162384,307.997589 
	C288.162506,307.999237 151.162598,307.999023 14.162711,307.998108 
	C7.209110,307.998077 6.585073,307.433319 6.050990,300.498322 
	C5.948887,299.172516 6.022732,297.832825 6.022722,296.499542 
	C6.022035,204.499619 6.022094,112.499695 6.022178,20.499767 
	C6.022179,19.499769 5.995412,18.498848 6.028398,17.499920 
	C6.286096,9.695683 6.992667,9.002210 14.660952,9.002188 
	C151.660843,9.001800 288.660736,9.001690 425.660645,9.002525 
	C432.995392,9.002570 432.996521,9.006697 432.998444,16.500029 
	C433.000092,22.833355 432.998779,29.166681 432.998779,36.000004 
M200.610657,100.968987 
	C201.097031,100.646278 201.583420,100.323563 202.472061,99.793556 
	C202.722931,99.608147 202.899673,99.368141 203.659973,98.968353 
	C204.795883,97.978935 205.931793,96.989525 207.470993,95.792801 
	C207.722504,95.606995 207.899216,95.366287 208.677948,94.954330 
	C209.451218,93.970070 210.224487,92.985809 211.000000,92.000000 
	C211.000000,92.000000 211.002274,91.997963 211.610641,91.969154 
	C212.096954,91.646362 212.583267,91.323570 213.471878,90.793648 
	C213.722778,90.608353 213.899628,90.368469 214.686096,89.956764 
	C215.456726,88.947311 216.227356,87.937859 217.207169,86.526001 
	C217.394119,86.275261 217.635696,86.099648 218.549500,85.978973 
	C219.031937,85.653183 219.514389,85.327393 220.000000,85.000000 
	C220.000000,85.000000 220.001724,84.997452 220.694397,85.006088 
	C221.387146,85.010666 222.079895,85.015251 222.960770,85.937637 
	C222.960770,127.490105 222.960770,169.042572 222.960770,210.595047 
	C223.361771,210.602737 223.762756,210.610443 224.163757,210.618134 
	C224.163757,208.191177 224.166718,205.764206 224.163330,203.337250 
	C224.107834,163.562149 224.051498,123.787056 223.956635,83.307777 
	C222.935059,82.553253 221.913483,81.798721 219.974823,80.923683 
	C169.742340,80.907249 119.509834,80.877487 69.277435,80.933655 
	C67.637077,80.935486 65.997696,81.812950 64.122833,82.477974 
	C63.964413,82.746979 63.936520,83.025818 63.329784,83.822647 
	C62.921909,85.305725 62.210548,86.778923 62.161854,88.273705 
	C62.002243,93.173233 62.083508,98.080597 61.150661,103.142143 
	C58.987385,103.152031 56.824116,103.165962 54.660828,103.171051 
	C47.068733,103.188934 46.177753,104.093109 46.177170,111.868759 
	C46.174274,150.310318 46.174919,188.751877 46.176495,227.193436 
	C46.176834,235.490311 46.747337,236.077942 54.817371,236.078613 
	C83.773346,236.081055 112.729324,236.079697 141.685303,236.079620 
	C161.488525,236.079575 181.291779,236.092407 201.094971,236.070999 
	C207.014236,236.064606 207.963852,235.056274 208.020462,229.049057 
	C208.067459,224.059418 208.115280,219.069778 209.067810,214.050751 
	C213.216309,213.618988 217.364807,213.187210 221.816269,212.350952 
	C221.208694,211.897552 220.601120,211.444153 220.000473,211.001083 
	C220.000473,211.001083 220.010452,211.008850 219.803253,210.551392 
	C219.532181,210.363815 219.261108,210.176239 218.998962,209.999542 
	C218.998962,209.999542 219.010345,210.007751 218.901260,209.309097 
	C217.911652,208.868820 216.922028,208.428528 215.429031,207.750092 
	C214.957077,207.193054 214.485138,206.636032 213.951675,205.380112 
	C212.964325,204.560089 211.976974,203.740067 210.788101,202.522171 
	C210.604660,202.274414 210.366165,202.103455 209.755005,201.544220 
	C209.243607,201.349075 208.732193,201.153931 208.063889,200.038528 
	C208.049454,170.603592 208.035767,141.168655 208.020065,111.733719 
	C208.016022,104.167564 207.473099,103.576508 200.006668,102.306038 
	C200.003708,101.871223 200.000763,101.436401 200.000000,101.000000 
	C200.000000,101.000000 200.002274,100.997955 200.610657,100.968987 
M361.500000,178.003403 
	C370.996582,178.002487 380.498352,178.160446 389.984833,177.850296 
	C391.640411,177.796158 393.231598,175.770859 394.852539,174.655945 
	C393.476135,173.141281 392.289703,171.351013 390.648804,170.220047 
	C389.731476,169.587814 388.060059,170.022720 386.728455,170.022491 
	C357.572296,170.017288 328.416107,170.017242 299.259949,170.022644 
	C297.928528,170.022888 296.255524,169.590057 295.340607,170.223755 
	C293.703461,171.357727 292.523010,173.151108 291.151672,174.668839 
	C292.775513,175.779465 294.320984,177.043289 296.058380,177.931915 
	C296.851074,178.337372 298.022491,178.003235 299.022125,178.003235 
	C319.514740,178.003418 340.007385,178.003403 361.500000,178.003403 
M384.404297,151.003403 
	C386.570343,150.996506 388.810211,151.323624 390.876923,150.867050 
	C392.290253,150.554810 394.233459,149.341431 394.521912,148.179108 
	C394.801941,147.050568 393.586945,145.048996 392.452301,144.209503 
	C391.263550,143.329956 389.392609,143.084503 387.814240,143.067032 
	C378.817535,142.967377 369.819092,143.018463 360.821259,143.018494 
	C339.826294,143.018585 318.831238,143.049622 297.836456,142.988098 
	C294.403778,142.978027 291.381287,144.192795 291.338043,147.598267 
	C291.294647,151.011200 294.672760,151.105270 297.449341,151.007629 
	C298.281433,150.978363 299.115448,151.003372 299.948578,151.003372 
	C327.775238,151.003387 355.601929,151.003418 384.404297,151.003403 
M361.500000,116.022346 
	C340.840881,116.022346 320.181793,116.021935 299.522675,116.023445 
	C298.356628,116.023529 296.909973,115.603844 296.082062,116.137222 
	C294.271423,117.303650 292.774963,118.957710 291.150177,120.412582 
	C292.853912,121.608856 294.515656,122.873878 296.288818,123.956429 
	C296.774567,124.252991 297.594238,124.003258 298.260651,124.003258 
	C328.083069,124.003357 357.905487,124.003922 387.727905,124.001129 
	C388.893524,124.001022 390.187897,124.283157 391.192566,123.872223 
	C392.478973,123.346031 394.158478,122.444580 394.501984,121.341507 
	C394.818237,120.325920 393.930756,118.350098 392.960175,117.660255 
	C391.601837,116.694847 389.681763,116.121399 387.989441,116.091454 
	C379.495209,115.941116 370.996887,116.022453 361.500000,116.022346 
M135.500000,269.002441 
	C150.481140,269.002380 165.462280,268.996948 180.443420,269.007019 
	C183.343750,269.008972 186.786987,269.168030 186.695145,265.217621 
	C186.614197,261.734222 183.567093,261.000763 180.454269,261.002960 
	C150.159073,261.024292 119.863838,261.026062 89.568642,261.000000 
	C86.545715,260.997375 84.208336,261.797485 84.033325,265.255737 
	C83.824242,269.387207 86.867439,269.000977 89.556541,269.001312 
	C104.537697,269.003174 119.518845,269.002350 135.500000,269.002441 
M123.500000,44.026966 
	C142.643768,44.026752 161.788712,44.122162 180.929504,43.882969 
	C182.911026,43.858208 186.401199,42.008858 186.541000,40.718868 
	C186.921463,37.208351 183.735077,36.984016 180.921814,36.985439 
	C150.291794,37.000942 119.661781,36.996021 89.031769,36.994022 
	C86.641151,36.993866 84.157967,36.825115 84.012207,40.266655 
	C83.855026,43.977825 86.363792,44.044056 89.040070,44.037518 
	C100.193321,44.010277 111.346680,44.026657 123.500000,44.026966 
M337.433685,199.579880 
	C330.378296,202.424194 327.122711,207.453156 328.033051,214.101166 
	C328.803619,219.728363 333.711609,224.468460 339.381836,225.025024 
	C344.641357,225.541275 348.922821,223.695969 351.802826,219.272659 
	C354.784149,214.693710 354.915009,209.824310 351.934967,205.188553 
	C348.734985,200.210693 344.016510,198.354172 337.433685,199.579880 
M62.756794,39.377380 
	C61.957142,39.776890 61.157490,40.176399 60.357838,40.575909 
	C61.725929,42.426220 63.094021,44.276535 64.462112,46.126846 
	C64.817093,45.924809 65.172066,45.722767 65.527046,45.520729 
	C65.301819,44.425617 65.076599,43.330505 64.847473,42.216431 
	C66.838379,42.001881 68.653755,41.806248 70.469124,41.610619 
	C70.461739,41.216469 70.454353,40.822323 70.446968,40.428173 
	C68.118607,40.178986 65.790245,39.929794 62.756794,39.377380 
M209.072632,38.645016 
	C208.041977,37.795551 207.011307,36.946087 204.870605,35.181728 
	C205.632858,37.715309 205.932968,38.712791 206.246414,39.754642 
	C204.167511,39.984425 202.351181,40.185188 200.534836,40.385952 
	C203.042252,41.871582 205.539505,42.474659 208.051437,42.543739 
	C208.507797,42.556290 209.024216,40.384331 209.072632,38.645016 
M65.189217,36.257660 
	C65.025131,36.377476 64.861053,36.497292 64.696968,36.617104 
	C64.925743,36.591915 65.154526,36.566727 65.189217,36.257660 
M205.756500,45.190311 
	C205.636963,45.026470 205.517441,44.862629 205.397903,44.698784 
	C205.422668,44.928143 205.447418,45.157501 205.756500,45.190311 
z"/>
<path fill="#530CD1" opacity="1.000000" stroke="none" 
	d="
M208.162735,214.080139 
	C208.115280,219.069778 208.067459,224.059418 208.020462,229.049057 
	C207.963852,235.056274 207.014236,236.064606 201.094971,236.070999 
	C181.291779,236.092407 161.488525,236.079575 141.685303,236.079620 
	C112.729324,236.079697 83.773346,236.081055 54.817371,236.078613 
	C46.747337,236.077942 46.176834,235.490311 46.176495,227.193436 
	C46.174919,188.751877 46.174274,150.310318 46.177170,111.868759 
	C46.177753,104.093109 47.068733,103.188934 54.660828,103.171051 
	C56.824116,103.165962 58.987385,103.152031 61.948353,103.107132 
	C63.197857,103.029289 63.649666,102.986458 64.554733,103.036667 
	C72.336189,103.074348 79.664398,103.019005 87.328659,103.049942 
	C88.116386,103.057564 88.568054,102.978905 89.478058,102.999603 
	C114.504753,103.123001 139.073135,103.177429 163.641449,103.157639 
	C175.088547,103.148422 186.535553,102.995331 198.312958,103.009628 
	C199.096771,103.060661 199.550232,103.009514 200.003693,102.958366 
	C207.473099,103.576508 208.016022,104.167564 208.020065,111.733719 
	C208.035767,141.168655 208.049454,170.603592 208.072632,200.763947 
	C208.119171,201.668167 208.156937,201.846970 208.120010,202.471771 
	C208.081314,205.930679 208.117294,208.943604 208.104279,212.309265 
	C208.091080,213.134720 208.126907,213.607422 208.162735,214.080139 
M120.324356,185.967148 
	C115.010704,178.313705 109.707558,170.652924 104.379669,163.009399 
	C100.871140,157.975983 99.145958,157.967468 95.653526,163.022339 
	C86.667320,176.028809 77.703445,189.050751 68.760712,202.087158 
	C68.080986,203.078018 67.638214,204.231430 66.862885,205.742844 
	C81.682014,205.742844 95.818512,205.742844 110.485420,205.962463 
	C110.670860,205.915253 110.856308,205.868042 111.970688,205.896332 
	C118.949211,205.854172 125.927727,205.811996 133.715866,205.898132 
	C134.524216,205.788177 135.332550,205.678207 137.047379,205.719284 
	C153.729462,205.719284 170.411545,205.719284 188.028931,205.719284 
	C175.479767,183.968323 163.568222,163.232559 151.537842,142.565964 
	C149.693726,139.397995 147.549881,140.137222 145.914932,142.993759 
	C137.909607,156.980347 129.925583,170.979111 121.455322,185.236862 
	C121.297516,185.556778 121.139717,185.876694 120.324356,185.967148 
M106.262512,141.374405 
	C104.642914,151.248520 110.885292,158.527359 119.358505,156.644852 
	C124.603111,155.479645 128.439804,151.004883 128.686371,145.765671 
	C128.919281,140.816589 125.489677,135.907852 120.711678,134.351624 
	C115.182831,132.550827 110.320274,134.725876 106.262512,141.374405 
M188.860611,112.076538 
	C187.643158,113.052010 185.393829,114.024200 185.390701,115.003532 
	C185.378586,118.804344 186.062317,122.609917 186.575256,126.401772 
	C186.599106,126.578125 187.472488,126.736038 187.951157,126.738747 
	C191.090775,126.756508 194.249313,126.914467 197.358765,126.600937 
	C198.263351,126.509727 199.682114,125.073692 199.743240,124.177582 
	C200.007736,120.300209 199.856522,116.394470 199.856522,112.072960 
	C196.007782,112.072960 192.895630,112.072960 188.860611,112.076538 
z"/>
<path fill="#FFFFFF" opacity="1.000000" stroke="none" 
	d="
M197.982590,102.907455 
	C186.535553,102.995331 175.088547,103.148422 163.641449,103.157639 
	C139.073135,103.177429 114.504753,103.123001 89.438370,102.666039 
	C87.960709,101.465401 86.981079,100.697693 85.897446,99.728561 
	C85.607239,99.275993 85.366272,99.099716 84.909393,98.706444 
	C83.499832,97.610458 82.251396,96.806335 81.001480,96.001106 
	C81.000000,96.000000 80.997299,95.996758 80.892441,95.768814 
	C80.525734,95.336929 80.263893,95.132996 79.897446,94.727707 
	C79.605820,94.275436 79.364098,94.099754 78.886124,93.755440 
	C78.137924,93.341911 77.571289,93.172256 77.002319,93.001297 
	C77.000000,93.000000 76.997002,92.996269 76.962540,92.674377 
	C76.286026,91.902046 75.643982,91.451607 75.000977,91.000580 
	C75.000000,91.000000 74.998230,90.998260 74.829300,90.743408 
	C74.083740,90.325958 73.507111,90.163353 72.729248,89.896988 
	C72.277054,89.607574 72.100464,89.367264 71.974197,88.722816 
	C70.967224,87.558983 69.984299,86.744614 68.896263,85.730865 
	C68.605202,85.282867 68.364319,85.111435 67.942703,84.743988 
	C67.552795,83.728035 67.288719,82.985275 67.484222,82.154434 
	C114.307510,82.057053 160.671204,82.041908 207.034912,82.048141 
	C211.348938,82.048721 215.662949,82.184685 219.976654,82.600296 
	C219.984802,83.627693 219.993256,84.312569 220.001724,84.997452 
	C220.001724,84.997452 220.000000,85.000000 219.694489,85.015457 
	C218.903290,85.353668 218.417603,85.676422 217.931900,85.999168 
	C217.635696,86.099648 217.394119,86.275261 216.760773,86.785927 
	C215.543732,88.055229 214.773087,89.064613 214.002426,90.073990 
	C213.899628,90.368469 213.722778,90.608353 212.961075,90.907013 
	C211.967606,91.346245 211.484940,91.672096 211.002274,91.997955 
	C211.002274,91.997963 211.000000,92.000000 210.655121,92.032242 
	C209.540543,93.066551 208.770844,94.068611 208.001144,95.070663 
	C207.899216,95.366287 207.722504,95.606995 206.894867,95.892807 
	C205.213272,97.019714 204.107773,98.046631 203.002289,99.073540 
	C202.899673,99.368141 202.722931,99.608147 201.961243,99.906990 
	C200.967712,100.346268 200.484985,100.672112 200.002274,100.997955 
	C200.002274,100.997955 200.000000,101.000000 199.684174,101.034332 
	C198.906418,101.681595 198.444504,102.294525 197.982590,102.907455 
z"/>
<path fill="#E5E5E5" opacity="1.000000" stroke="none" 
	d="
M361.000000,178.003418 
	C340.007385,178.003403 319.514740,178.003418 299.022125,178.003235 
	C298.022491,178.003235 296.851074,178.337372 296.058380,177.931915 
	C294.320984,177.043289 292.775513,175.779465 291.151672,174.668839 
	C292.523010,173.151108 293.703461,171.357727 295.340607,170.223755 
	C296.255524,169.590057 297.928528,170.022888 299.259949,170.022644 
	C328.416107,170.017242 357.572296,170.017288 386.728455,170.022491 
	C388.060059,170.022720 389.731476,169.587814 390.648804,170.220047 
	C392.289703,171.351013 393.476135,173.141281 394.852539,174.655945 
	C393.231598,175.770859 391.640411,177.796158 389.984833,177.850296 
	C380.498352,178.160446 370.996582,178.002487 361.000000,178.003418 
z"/>
<path fill="#E5E5E5" opacity="1.000000" stroke="none" 
	d="
M383.916443,151.003418 
	C355.601929,151.003418 327.775238,151.003387 299.948578,151.003372 
	C299.115448,151.003372 298.281433,150.978363 297.449341,151.007629 
	C294.672760,151.105270 291.294647,151.011200 291.338043,147.598267 
	C291.381287,144.192795 294.403778,142.978027 297.836456,142.988098 
	C318.831238,143.049622 339.826294,143.018585 360.821259,143.018494 
	C369.819092,143.018463 378.817535,142.967377 387.814240,143.067032 
	C389.392609,143.084503 391.263550,143.329956 392.452301,144.209503 
	C393.586945,145.048996 394.801941,147.050568 394.521912,148.179108 
	C394.233459,149.341431 392.290253,150.554810 390.876923,150.867050 
	C388.810211,151.323624 386.570343,150.996506 383.916443,151.003418 
z"/>
<path fill="#E5E5E5" opacity="1.000000" stroke="none" 
	d="
M362.000000,116.022377 
	C370.996887,116.022453 379.495209,115.941116 387.989441,116.091454 
	C389.681763,116.121399 391.601837,116.694847 392.960175,117.660255 
	C393.930756,118.350098 394.818237,120.325920 394.501984,121.341507 
	C394.158478,122.444580 392.478973,123.346031 391.192566,123.872223 
	C390.187897,124.283157 388.893524,124.001022 387.727905,124.001129 
	C357.905487,124.003922 328.083069,124.003357 298.260651,124.003258 
	C297.594238,124.003258 296.774567,124.252991 296.288818,123.956429 
	C294.515656,122.873878 292.853912,121.608856 291.150177,120.412582 
	C292.774963,118.957710 294.271423,117.303650 296.082062,116.137222 
	C296.909973,115.603844 298.356628,116.023529 299.522675,116.023445 
	C320.181793,116.021935 340.840881,116.022346 362.000000,116.022377 
z"/>
<path fill="#E5E5E5" opacity="1.000000" stroke="none" 
	d="
M135.000000,269.002441 
	C119.518845,269.002350 104.537697,269.003174 89.556541,269.001312 
	C86.867439,269.000977 83.824242,269.387207 84.033325,265.255737 
	C84.208336,261.797485 86.545715,260.997375 89.568642,261.000000 
	C119.863838,261.026062 150.159073,261.024292 180.454269,261.002960 
	C183.567093,261.000763 186.614197,261.734222 186.695145,265.217621 
	C186.786987,269.168030 183.343750,269.008972 180.443420,269.007019 
	C165.462280,268.996948 150.481140,269.002380 135.000000,269.002441 
z"/>
<path fill="#E5E5E5" opacity="1.000000" stroke="none" 
	d="
M123.000000,44.027000 
	C111.346680,44.026657 100.193321,44.010277 89.040070,44.037518 
	C86.363792,44.044056 83.855026,43.977825 84.012207,40.266655 
	C84.157967,36.825115 86.641151,36.993866 89.031769,36.994022 
	C119.661781,36.996021 150.291794,37.000942 180.921814,36.985439 
	C183.735077,36.984016 186.921463,37.208351 186.541000,40.718868 
	C186.401199,42.008858 182.911026,43.858208 180.929504,43.882969 
	C161.788712,44.122162 142.643768,44.026752 123.000000,44.027000 
z"/>
<path fill="#5A15D3" opacity="1.000000" stroke="none" 
	d="
M337.810577,199.440704 
	C344.016510,198.354172 348.734985,200.210693 351.934967,205.188553 
	C354.915009,209.824310 354.784149,214.693710 351.802826,219.272659 
	C348.922821,223.695969 344.641357,225.541275 339.381836,225.025024 
	C333.711609,224.468460 328.803619,219.728363 328.033051,214.101166 
	C327.122711,207.453156 330.378296,202.424194 337.810577,199.440704 
M346.933746,211.618515 
	C345.416046,211.187302 343.898376,210.756088 342.528870,210.366974 
	C342.134125,208.730865 341.793091,207.317276 341.452057,205.903687 
	C341.111481,205.931183 340.770905,205.958694 340.430328,205.986191 
	C340.042114,207.462723 339.653900,208.939255 339.270386,210.397812 
	C337.715393,210.834213 336.222198,211.253250 335.421478,211.477951 
	C337.667725,213.861954 339.574432,215.885590 341.602112,218.037582 
	C341.934753,216.598434 342.281036,215.100296 342.576630,213.821548 
	C344.242737,213.310547 345.611542,212.890747 346.933746,211.618515 
z"/>
<path fill="#403B5B" opacity="1.000000" stroke="none" 
	d="
M219.976959,82.257782 
	C215.662949,82.184685 211.348938,82.048721 207.034912,82.048141 
	C160.671204,82.041908 114.307510,82.057053 67.039345,82.076286 
	C65.542542,82.151566 64.950203,82.216904 64.357864,82.282242 
	C65.997696,81.812950 67.637077,80.935486 69.277435,80.933655 
	C119.509834,80.877487 169.742340,80.907249 220.417267,81.266312 
	C220.565445,81.825226 220.271210,82.041504 219.976959,82.257782 
z"/>
<path fill="#403B5B" opacity="1.000000" stroke="none" 
	d="
M223.995377,84.011955 
	C224.051498,123.787056 224.107834,163.562149 224.163330,203.337250 
	C224.166718,205.764206 224.163757,208.191177 224.163757,210.618134 
	C223.762756,210.610443 223.361771,210.602737 222.960770,210.595047 
	C222.960770,169.042572 222.960770,127.490105 222.978455,85.206558 
	C223.329224,84.320961 223.662292,84.166458 223.995377,84.011955 
z"/>
<path fill="#FEFDFF" opacity="1.000000" stroke="none" 
	d="
M208.153290,211.956512 
	C208.117294,208.943604 208.081314,205.930679 208.432526,202.471771 
	C209.237366,202.020279 209.654999,202.014786 210.072632,202.009277 
	C210.366165,202.103455 210.604660,202.274414 210.918488,203.071533 
	C212.036987,204.440262 213.025085,205.259628 214.013184,206.078995 
	C214.485138,206.636032 214.957077,207.193054 215.842896,208.153503 
	C217.174622,209.040527 218.092484,209.524139 219.010345,210.007751 
	C219.010345,210.007751 218.998962,209.999542 219.101807,210.220245 
	C219.473251,210.630264 219.741852,210.819565 220.010452,211.008850 
	C220.010452,211.008850 220.000473,211.001083 219.993500,211.273880 
	C219.986328,211.731949 219.986145,211.917221 219.529221,212.066467 
	C215.432739,212.005798 211.792999,211.981155 208.153290,211.956512 
z"/>
<path fill="#878696" opacity="1.000000" stroke="none" 
	d="
M64.101479,102.943626 
	C63.649666,102.986458 63.197857,103.029289 62.409111,103.028534 
	C62.083508,98.080597 62.002243,93.173233 62.161854,88.273705 
	C62.210548,86.778923 62.921909,85.305725 63.700943,83.993713 
	C64.121674,84.440025 64.171249,84.715263 64.174759,85.457184 
	C64.119614,91.597122 64.110542,97.270378 64.101479,102.943626 
z"/>
<path fill="#E8E8E8" opacity="1.000000" stroke="none" 
	d="
M63.109337,39.528992 
	C65.790245,39.929794 68.118607,40.178986 70.446968,40.428173 
	C70.454353,40.822323 70.461739,41.216469 70.469124,41.610619 
	C68.653755,41.806248 66.838379,42.001881 64.847473,42.216431 
	C65.076599,43.330505 65.301819,44.425617 65.527046,45.520729 
	C65.172066,45.722767 64.817093,45.924809 64.462112,46.126846 
	C63.094021,44.276535 61.725929,42.426220 60.357838,40.575909 
	C61.157490,40.176399 61.957142,39.776890 63.109337,39.528992 
z"/>
<path fill="#E8E8E8" opacity="1.000000" stroke="none" 
	d="
M209.292755,38.932922 
	C209.024216,40.384331 208.507797,42.556290 208.051437,42.543739 
	C205.539505,42.474659 203.042252,41.871582 200.534836,40.385952 
	C202.351181,40.185188 204.167511,39.984425 206.246414,39.754642 
	C205.932968,38.712791 205.632858,37.715309 204.870605,35.181728 
	C207.011307,36.946087 208.041977,37.795551 209.292755,38.932922 
z"/>
<path fill="#878696" opacity="1.000000" stroke="none" 
	d="
M208.104279,212.309265 
	C211.792999,211.981155 215.432739,212.005798 219.684494,212.340668 
	C220.702118,212.685760 221.107712,212.720596 221.513306,212.755447 
	C217.364807,213.187210 213.216309,213.618988 208.615265,214.065445 
	C208.126907,213.607422 208.091080,213.134720 208.104279,212.309265 
z"/>
<path fill="#F0F0F1" opacity="1.000000" stroke="none" 
	d="
M223.976013,83.659866 
	C223.662292,84.166458 223.329224,84.320961 222.884399,84.747650 
	C222.079895,85.015251 221.387146,85.010666 220.348053,85.001770 
	C219.993256,84.312569 219.984802,83.627693 219.976654,82.600296 
	C220.271210,82.041504 220.565445,81.825226 220.875793,81.326569 
	C221.913483,81.798721 222.935059,82.553253 223.976013,83.659866 
z"/>
<path fill="#F0F0F1" opacity="1.000000" stroke="none" 
	d="
M64.220825,84.990501 
	C64.171249,84.715263 64.121674,84.440025 64.055634,83.739639 
	C63.936520,83.025818 63.964413,82.746979 64.240349,82.380112 
	C64.950203,82.216904 65.542542,82.151566 66.579758,82.164368 
	C67.288719,82.985275 67.552795,83.728035 67.647507,84.730942 
	C66.392372,84.990891 65.306595,84.990700 64.220825,84.990501 
z"/>
<path fill="#F0F0F1" opacity="1.000000" stroke="none" 
	d="
M203.331131,99.020950 
	C204.107773,98.046631 205.213272,97.019714 206.693237,95.996460 
	C205.931793,96.989525 204.795883,97.978935 203.331131,99.020950 
z"/>
<path fill="#E8E8E8" opacity="1.000000" stroke="none" 
	d="
M213.982422,205.729553 
	C213.025085,205.259628 212.036987,204.440262 211.019257,203.270477 
	C211.976974,203.740067 212.964325,204.560089 213.982422,205.729553 
z"/>
<path fill="#F0F0F1" opacity="1.000000" stroke="none" 
	d="
M208.339539,95.012497 
	C208.770844,94.068611 209.540543,93.066551 210.653992,92.033020 
	C210.224487,92.985809 209.451218,93.970070 208.339539,95.012497 
z"/>
<path fill="#F0F0F1" opacity="1.000000" stroke="none" 
	d="
M214.344269,90.015381 
	C214.773087,89.064613 215.543732,88.055229 216.656189,86.987137 
	C216.227356,87.937859 215.456726,88.947311 214.344269,90.015381 
z"/>
<path fill="#E8E8E8" opacity="1.000000" stroke="none" 
	d="
M218.955811,209.658417 
	C218.092484,209.524139 217.174622,209.040527 216.094574,208.272583 
	C216.922028,208.428528 217.911652,208.868820 218.955811,209.658417 
z"/>
<path fill="#E8E8E8" opacity="1.000000" stroke="none" 
	d="
M221.664795,212.553192 
	C221.107712,212.720596 220.702118,212.685760 220.141251,212.376709 
	C219.986145,211.917221 219.986328,211.731949 219.990036,211.268707 
	C220.601120,211.444153 221.208694,211.897552 221.664795,212.553192 
z"/>
<path fill="#F0F0F1" opacity="1.000000" stroke="none" 
	d="
M198.312958,103.009628 
	C198.444504,102.294525 198.906418,101.681595 199.683075,101.035126 
	C200.000763,101.436401 200.003708,101.871223 200.005188,102.632202 
	C199.550232,103.009514 199.096771,103.060661 198.312958,103.009628 
z"/>
<path fill="#E8E8E8" opacity="1.000000" stroke="none" 
	d="
M65.286255,36.399597 
	C65.154526,36.566727 64.925743,36.591915 64.696968,36.617104 
	C64.861053,36.497292 65.025131,36.377476 65.286255,36.399597 
z"/>
<path fill="#F0F0F1" opacity="1.000000" stroke="none" 
	d="
M218.240692,85.989075 
	C218.417603,85.676422 218.903290,85.353668 219.692902,85.016258 
	C219.514389,85.327393 219.031937,85.653183 218.240692,85.989075 
z"/>
<path fill="#E8E8E8" opacity="1.000000" stroke="none" 
	d="
M209.913818,201.776764 
	C209.654999,202.014786 209.237366,202.020279 208.507202,202.025787 
	C208.156937,201.846970 208.119171,201.668167 208.151093,201.224060 
	C208.732193,201.153931 209.243607,201.349075 209.913818,201.776764 
z"/>
<path fill="#E8E8E8" opacity="1.000000" stroke="none" 
	d="
M205.614349,45.288586 
	C205.447418,45.157501 205.422668,44.928143 205.397903,44.698784 
	C205.517441,44.862629 205.636963,45.026470 205.614349,45.288586 
z"/>
<path fill="#F0F0F1" opacity="1.000000" stroke="none" 
	d="
M211.306458,91.983551 
	C211.484940,91.672096 211.967606,91.346245 212.759918,91.010574 
	C212.583267,91.323570 212.096954,91.646362 211.306458,91.983551 
z"/>
<path fill="#F0F0F1" opacity="1.000000" stroke="none" 
	d="
M200.306458,100.983475 
	C200.484985,100.672112 200.967712,100.346268 201.760101,100.010635 
	C201.583420,100.323563 201.097031,100.646278 200.306458,100.983475 
z"/>
<path fill="#E8E8E8" opacity="1.000000" stroke="none" 
	d="
M219.906860,210.780121 
	C219.741852,210.819565 219.473251,210.630264 219.097351,210.214813 
	C219.261108,210.176239 219.532181,210.363815 219.906860,210.780121 
z"/>
<path fill="#FEFDFF" opacity="1.000000" stroke="none" 
	d="
M121.934036,184.973587 
	C129.925583,170.979111 137.909607,156.980347 145.914932,142.993759 
	C147.549881,140.137222 149.693726,139.397995 151.537842,142.565964 
	C163.568222,163.232559 175.479767,183.968323 188.028931,205.719284 
	C170.411545,205.719284 153.729462,205.719284 136.509842,205.326859 
	C131.292877,198.280823 126.613464,191.627197 121.934036,184.973587 
z"/>
<path fill="#FEFDFF" opacity="1.000000" stroke="none" 
	d="
M132.906250,205.769836 
	C125.927727,205.811996 118.949211,205.854172 111.402985,205.715271 
	C110.541855,205.603760 110.248428,205.673309 109.955009,205.742844 
	C95.818512,205.742844 81.682014,205.742844 66.862885,205.742844 
	C67.638214,204.231430 68.080986,203.078018 68.760712,202.087158 
	C77.703445,189.050751 86.667320,176.028809 95.653526,163.022339 
	C99.145958,157.967468 100.871140,157.975983 104.379669,163.009399 
	C109.707558,170.652924 115.010704,178.313705 120.676071,186.423416 
	C121.878685,188.257721 122.718628,189.642685 123.582443,191.012573 
	C126.686020,195.934402 129.797653,200.851166 132.906250,205.769836 
z"/>
<path fill="#FBFAFE" opacity="1.000000" stroke="none" 
	d="
M106.445801,141.012604 
	C110.320274,134.725876 115.182831,132.550827 120.711678,134.351624 
	C125.489677,135.907852 128.919281,140.816589 128.686371,145.765671 
	C128.439804,151.004883 124.603111,155.479645 119.358505,156.644852 
	C110.885292,158.527359 104.642914,151.248520 106.445801,141.012604 
z"/>
<path fill="#FFFFFF" opacity="1.000000" stroke="none" 
	d="
M64.174759,85.457184 
	C65.306595,84.990700 66.392372,84.990891 67.773331,85.004135 
	C68.364319,85.111435 68.605202,85.282867 68.921219,86.080505 
	C70.033600,87.443779 71.015923,88.258034 71.998238,89.072289 
	C72.100464,89.367264 72.277054,89.607574 72.911926,90.141022 
	C73.863289,90.658630 74.430763,90.828445 74.998230,90.998260 
	C74.998230,90.998260 75.000000,91.000000 75.036156,91.322525 
	C75.713875,92.095459 76.355438,92.545860 76.997002,92.996269 
	C76.997002,92.996269 77.000000,93.000000 77.169975,93.256416 
	C77.915863,93.674995 78.491768,93.837151 79.067673,93.999313 
	C79.364098,94.099754 79.605820,94.275436 79.989456,94.967239 
	C80.456474,95.604324 80.726883,95.800545 80.997299,95.996758 
	C80.997299,95.996758 81.000000,96.000000 81.035934,96.360115 
	C82.404762,97.479584 83.737648,98.238945 85.070526,98.998306 
	C85.366272,99.099716 85.607239,99.275993 85.911591,100.054108 
	C86.350693,101.375267 86.671646,102.169456 86.992599,102.963654 
	C79.664398,103.019005 72.336189,103.074348 64.554733,103.036667 
	C64.110542,97.270378 64.119614,91.597122 64.174759,85.457184 
z"/>
<path fill="#403B5B" opacity="1.000000" stroke="none" 
	d="
M189.322052,112.074753 
	C192.895630,112.072960 196.007782,112.072960 199.856522,112.072960 
	C199.856522,116.394470 200.007736,120.300209 199.743240,124.177582 
	C199.682114,125.073692 198.263351,126.509727 197.358765,126.600937 
	C194.249313,126.914467 191.090775,126.756508 187.951157,126.738747 
	C187.472488,126.736038 186.599106,126.578125 186.575256,126.401772 
	C186.062317,122.609917 185.378586,118.804344 185.390701,115.003532 
	C185.393829,114.024200 187.643158,113.052010 189.322052,112.074753 
z"/>
<path fill="#CDBEE7" opacity="1.000000" stroke="none" 
	d="
M133.311066,205.833984 
	C129.797653,200.851166 126.686020,195.934402 123.582443,191.012573 
	C122.718628,189.642685 121.878685,188.257721 121.004852,186.538147 
	C121.139717,185.876694 121.297516,185.556778 121.694687,185.105225 
	C126.613464,191.627197 131.292877,198.280823 136.056610,205.251343 
	C135.332550,205.678207 134.524216,205.788177 133.311066,205.833984 
z"/>
<path fill="#F0F0F1" opacity="1.000000" stroke="none" 
	d="
M87.328659,103.049942 
	C86.671646,102.169456 86.350693,101.375267 86.015594,100.255524 
	C86.981079,100.697693 87.960709,101.465401 88.980026,102.566673 
	C88.568054,102.978905 88.116386,103.057564 87.328659,103.049942 
z"/>
<path fill="#CDBEE7" opacity="1.000000" stroke="none" 
	d="
M110.220215,205.852661 
	C110.248428,205.673309 110.541855,205.603760 110.938522,205.677521 
	C110.856308,205.868042 110.670860,205.915253 110.220215,205.852661 
z"/>
<path fill="#F0F0F1" opacity="1.000000" stroke="none" 
	d="
M84.909393,98.706444 
	C83.737648,98.238945 82.404762,97.479584 81.037422,96.361221 
	C82.251396,96.806335 83.499832,97.610458 84.909393,98.706444 
z"/>
<path fill="#F0F0F1" opacity="1.000000" stroke="none" 
	d="
M71.974197,88.722816 
	C71.015923,88.258034 70.033600,87.443779 69.026321,86.279892 
	C69.984299,86.744614 70.967224,87.558983 71.974197,88.722816 
z"/>
<path fill="#F0F0F1" opacity="1.000000" stroke="none" 
	d="
M76.962540,92.674377 
	C76.355438,92.545860 75.713875,92.095459 75.037125,91.323105 
	C75.643982,91.451607 76.286026,91.902046 76.962540,92.674377 
z"/>
<path fill="#F0F0F1" opacity="1.000000" stroke="none" 
	d="
M74.829300,90.743408 
	C74.430763,90.828445 73.863289,90.658630 73.113144,90.244781 
	C73.507111,90.163353 74.083740,90.325958 74.829300,90.743408 
z"/>
<path fill="#F0F0F1" opacity="1.000000" stroke="none" 
	d="
M78.886124,93.755432 
	C78.491768,93.837151 77.915863,93.674995 77.172302,93.257713 
	C77.571289,93.172256 78.137924,93.341911 78.886124,93.755432 
z"/>
<path fill="#F0F0F1" opacity="1.000000" stroke="none" 
	d="
M80.892441,95.768814 
	C80.726883,95.800545 80.456474,95.604324 80.094055,95.168579 
	C80.263893,95.132996 80.525734,95.336929 80.892441,95.768814 
z"/>
<path fill="#FBFAFE" opacity="1.000000" stroke="none" 
	d="
M346.957031,212.044739 
	C345.611542,212.890747 344.242737,213.310547 342.576630,213.821548 
	C342.281036,215.100296 341.934753,216.598434 341.602112,218.037582 
	C339.574432,215.885590 337.667725,213.861954 335.421478,211.477951 
	C336.222198,211.253250 337.715393,210.834213 339.270386,210.397812 
	C339.653900,208.939255 340.042114,207.462723 340.430328,205.986191 
	C340.770905,205.958694 341.111481,205.931183 341.452057,205.903687 
	C341.793091,207.317276 342.134125,208.730865 342.528870,210.366974 
	C343.898376,210.756088 345.416046,211.187302 346.957031,212.044739 
z"/>
</svg>